<svg width="1487" height="533" viewBox="0 0 1487 533" fill="none" xmlns="http://www.w3.org/2000/svg">
<path d="M129 432.705C175.56 406.469 272.741 351.068 288.984 339.354C309.287 324.711 478.305 167.295 455.769 88.5877C433.234 9.8801 274.367 -43.0939 222.946 51.9036C154.314 178.696 590.984 575.477 853.902 489.448C1116.82 403.418 1164.44 310.067 1241.1 339.354C1302.43 362.783 1430.44 411.35 1486.78 432.705" stroke="#505050" stroke-dasharray="25 25"/>
<path d="M86.7923 472.696C85.5665 472.971 84.3726 473.48 83.2846 474.19C80.4501 475.997 78.8007 478.575 79.6008 479.948C80.4009 481.321 83.3473 480.969 86.1818 479.163C87.2844 478.477 88.264 477.601 89.0602 476.589C89.4297 476.099 89.4962 475.49 89.2298 475.034L88.1904 473.251C87.926 472.794 87.3773 472.576 86.7923 472.696Z" fill="#F3F3F3"/>
<path d="M79.6748 448.338C78.786 448.537 77.9201 448.906 77.1311 449.422C75.0763 450.731 73.8796 452.6 74.4593 453.595C75.039 454.59 77.1763 454.335 79.2309 453.026C80.0304 452.528 80.7406 451.893 81.3181 451.158C81.5857 450.804 81.6337 450.362 81.4407 450.032L80.6881 448.74C80.4966 448.409 80.099 448.251 79.6748 448.338Z" fill="#F3F3F3"/>
<path d="M68.1117 449.36C67.9138 449.338 67.7028 449.391 67.5198 449.508L62.6932 452.584C62.2894 452.84 62.1278 453.334 62.3325 453.687C62.3793 453.768 62.4434 453.837 62.5212 453.89L74.4146 462.085L90.509 451.828L68.1117 449.36Z" fill="#61A4F4"/>
<path d="M118.985 448.195L75.1888 475.767L49.279 486.08L36.0659 488.709L34.6128 486.24L107.614 441.165C109.789 439.815 112.213 438.987 114.639 438.764C115.701 438.672 116.751 438.707 117.762 438.868C118.659 439.004 119.51 439.266 120.289 439.646C121.159 440.078 122.814 440.127 123.35 440.986C123.352 440.985 124.616 444.931 118.985 448.195V448.195Z" fill="#F3F3F3"/>
<path d="M75.7724 472.123L56.822 502.324C56.5853 502.748 56.7256 503.223 57.1352 503.385C57.3865 503.484 57.6941 503.445 57.9526 503.281L62.7753 500.221C63.7028 499.632 64.5242 498.884 65.1886 498.024L101.937 454.828L75.7724 472.123Z" fill="#61A4F4"/>
<path d="M27.9632 471.114C27.6472 471.006 27.2711 471.062 26.9536 471.264L22.9667 473.804C22.4235 474.149 22.2069 474.814 22.4828 475.288C22.5354 475.378 22.6037 475.458 22.6856 475.523L33.8528 484.465L45.5972 477.128L27.9632 471.114Z" fill="#61A4F4"/>
<path d="M37.5985 486.079L31.5861 494.497C31.498 494.618 31.5187 494.77 31.6323 494.836C31.7142 494.884 31.8262 494.875 31.9171 494.814L35.6426 492.453C35.6715 492.435 35.6977 492.412 35.7194 492.386L44.5043 481.706L37.5985 486.079Z" fill="#61A4F4"/>
<path d="M117.042 439.232C116 439.065 114.919 439.029 113.825 439.126C112.759 440.615 112.078 442.289 111.849 443.979C111.832 444.319 112.105 444.563 112.46 444.525C112.57 444.513 112.68 444.474 112.779 444.412L119.644 440.04C118.842 439.645 117.965 439.372 117.042 439.232Z" fill="#61A4F4"/>
<path d="M102.081 447.271L106.564 444.44L110.738 451.54L106.255 454.371L102.081 447.271Z" fill="#F3F3F3"/>
<path d="M99.2604 450.079C98.7202 450.421 98.5042 451.079 98.7783 451.548L99.2225 452.308C99.5146 452.765 100.182 452.845 100.713 452.487C101.218 452.146 101.422 451.526 101.178 451.069L100.734 450.309C100.46 449.84 99.8006 449.737 99.2604 450.079V450.079Z" fill="#083870"/>
<path d="M95.2319 452.581C94.6916 452.923 94.4756 453.581 94.7497 454.05L95.1939 454.81C95.4861 455.266 96.1532 455.347 96.6842 454.989C97.1894 454.648 97.393 454.028 97.1496 453.57L96.7055 452.811C96.4313 452.342 95.7718 452.239 95.2319 452.581V452.581Z" fill="#083870"/>
<path d="M91.2021 455.084C90.6625 455.426 90.4473 456.083 90.7212 456.552L91.1653 457.311C91.4575 457.768 92.1246 457.848 92.6556 457.49C93.1609 457.149 93.3644 456.53 93.1211 456.072L92.6769 455.313C92.4028 454.844 91.7426 454.741 91.2021 455.084V455.084Z" fill="#083870"/>
<path d="M87.1736 457.585C86.634 457.928 86.4187 458.585 86.6926 459.054L87.1368 459.813C87.4289 460.27 88.0961 460.35 88.627 459.992C89.1323 459.651 89.3359 459.032 89.0925 458.574L88.6483 457.814C88.374 457.346 87.7138 457.243 87.1736 457.585V457.585Z" fill="#083870"/>
<path d="M83.1456 460.087C82.6056 460.43 82.3903 461.087 82.6643 461.556L83.1088 462.316C83.3827 462.785 84.0426 462.887 84.5827 462.545C85.1227 462.203 85.3385 461.546 85.0645 461.077L84.6201 460.317C84.3468 459.848 83.6872 459.745 83.1467 460.087C83.1463 460.087 83.1461 460.087 83.1456 460.087Z" fill="#083870"/>
<path d="M79.1165 462.589C78.5766 462.932 78.3612 463.589 78.6353 464.058L79.0797 464.818C79.3537 465.286 80.0136 465.389 80.5536 465.047C81.0937 464.705 81.3094 464.048 81.0354 463.579L80.591 462.819C80.3178 462.35 79.6581 462.247 79.1177 462.588C79.1172 462.589 79.1168 462.589 79.1165 462.589Z" fill="#083870"/>
<path d="M75.088 465.091C74.548 465.434 74.3327 466.091 74.6067 466.56L75.0511 467.32C75.3258 467.788 75.986 467.889 76.5255 467.547C77.064 467.205 77.2793 466.549 77.0066 466.081L76.5622 465.321C76.2884 464.852 75.6285 464.749 75.088 465.091Z" fill="#083870"/>
<path d="M71.0594 467.593C70.5195 467.936 70.3041 468.593 70.5782 469.062L71.0226 469.822C71.2972 470.29 71.9574 470.391 72.4969 470.049C73.0355 469.707 73.2507 469.051 72.978 468.583L72.5336 467.823C72.2598 467.354 71.5999 467.251 71.0594 467.593Z" fill="#083870"/>
<path d="M67.0308 470.095C66.4909 470.438 66.2755 471.095 66.5496 471.564L66.994 472.323C67.2686 472.792 67.9288 472.893 68.4683 472.55C69.0069 472.208 69.2222 471.553 68.9495 471.085L68.5051 470.325C68.231 469.856 67.5711 469.753 67.0308 470.095Z" fill="#083870"/>
<path d="M63.0008 472.597C62.4607 472.939 62.245 473.596 62.519 474.065L62.5196 474.066L62.964 474.826C63.2386 475.294 63.8988 475.395 64.4383 475.053C64.9769 474.711 65.1921 474.055 64.9194 473.587L64.475 472.827C64.2012 472.358 63.5413 472.255 63.0008 472.597Z" fill="#083870"/>
<path d="M58.973 475.098C58.4329 475.441 58.2172 476.098 58.4912 476.566L58.4917 476.567L58.9361 477.327C59.2108 477.795 59.871 477.897 60.4105 477.554C60.9491 477.212 61.1643 476.556 60.8917 476.088L60.4473 475.328C60.1732 474.86 59.5133 474.757 58.973 475.098Z" fill="#083870"/>
</svg>
