<svg width="24" height="24" viewBox="0 0 24 24" fill="none" xmlns="http://www.w3.org/2000/svg">
<g clip-path="url(#clip0_1549_1112)">
<path d="M21.3333 3.33325H2.66667C1.95942 3.33325 1.28115 3.6142 0.781049 4.1143C0.280952 4.6144 0 5.29267 0 5.99992L0 17.9999C0 18.7072 0.280952 19.3854 0.781049 19.8855C1.28115 20.3856 1.95942 20.6666 2.66667 20.6666H21.3333C22.0406 20.6666 22.7189 20.3856 23.219 19.8855C23.719 19.3854 24 18.7072 24 17.9999V5.99992C24 5.29267 23.719 4.6144 23.219 4.1143C22.7189 3.6142 22.0406 3.33325 21.3333 3.33325Z" fill="#083870"/>
<path d="M9.23069 10.0001H24V6.66675H4.61536L9.23069 10.0001ZM4.61536 17.3334H24V14.0001H9.23069L4.61536 17.3334Z" fill="#DBDBDB"/>
<path d="M9.23067 10.0001L4.61533 6.66678L0.921333 3.99878C0.633131 4.24671 0.401676 4.55377 0.242699 4.8991C0.0837214 5.24444 0.00094684 5.61994 0 6.00011L0 18.0001C0 18.8021 0.361333 19.5128 0.921333 20.0014L4.61533 17.3334L9.23067 14.0001L12 12.0001L9.23067 10.0001Z" fill="#920F17"/>
<path d="M4.99667 12.4012L6.33333 11.4326H4.68133L4.16867 9.85791L3.654 11.4326H2L3.33733 12.4019L2.82333 13.9752L4.16667 13.0026L5.51 13.9752L4.99667 12.4012Z" fill="white"/>
</g>
<defs>
<clipPath id="clip0_1549_1112">
<rect width="24" height="24" fill="white"/>
</clipPath>
</defs>
</svg>
