<svg width="180" height="23" viewBox="0 0 180 23" fill="none" xmlns="http://www.w3.org/2000/svg">
<path d="M7.36 16.036V3.268L1.824 16.036H7.36ZM5.44 21.86H7.36V16.836H0.672L7.968 0.0999985H14.4V16.036H16.352V16.836H14.4V21.86H16.32V22.5H5.44V21.86ZM28.9285 20.452C29.2272 20.516 29.6432 20.5587 30.1765 20.58C30.7312 20.6013 31.3392 20.5373 32.0005 20.388C32.6618 20.2173 33.3445 19.9293 34.0485 19.524C34.7525 19.1187 35.4245 18.5213 36.0645 17.732L36.3845 18.276C35.5312 19.5987 34.4538 20.6333 33.1525 21.38C31.8725 22.1267 30.4645 22.5 28.9285 22.5C27.4992 22.5 26.1125 22.34 24.7685 22.02C23.4458 21.7 22.2832 21.2093 21.2805 20.548C20.2778 19.8653 19.4672 19.012 18.8485 17.988C18.2512 16.964 17.9525 15.748 17.9525 14.34C17.9525 12.932 18.2512 11.716 18.8485 10.692C19.4672 9.668 20.2778 8.82533 21.2805 8.164C22.2832 7.48133 23.4458 6.98 24.7685 6.66C26.0912 6.34 27.4672 6.18 28.8965 6.18C30.2192 6.18 31.3498 6.34 32.2885 6.66C33.2272 6.95867 33.9952 7.35333 34.5925 7.844C35.2112 8.33467 35.6592 8.88933 35.9365 9.508C36.2352 10.1053 36.3845 10.7027 36.3845 11.3H31.7125C31.8618 10.724 31.9045 10.1693 31.8405 9.636C31.7978 9.08133 31.6485 8.60133 31.3925 8.196C31.1578 7.76933 30.8272 7.43867 30.4005 7.204C29.9952 6.948 29.5045 6.82 28.9285 6.82C27.6272 6.82 26.6138 7.48133 25.8885 8.804C25.1845 10.1053 24.8965 11.9507 25.0245 14.34C25.0885 15.4067 25.2592 16.3133 25.5365 17.06C25.8352 17.8067 26.1765 18.4253 26.5605 18.916C26.9445 19.3853 27.3498 19.748 27.7765 20.004C28.2032 20.2387 28.5872 20.388 28.9285 20.452ZM61.7358 14.5C61.7358 15.9293 61.4158 17.1667 60.7758 18.212C60.1571 19.2573 59.3251 20.1213 58.2798 20.804C57.2344 21.4867 56.0291 21.9987 54.6638 22.34C53.2984 22.66 51.8691 22.82 50.3758 22.82C48.8824 22.82 47.4424 22.66 46.0558 22.34C44.6904 21.9987 43.4851 21.4867 42.4398 20.804C41.3944 20.1213 40.5518 19.2573 39.9118 18.212C39.2931 17.1667 38.9838 15.9293 38.9838 14.5C38.9838 13.0707 39.2931 11.8333 39.9118 10.788C40.5518 9.74267 41.3944 8.87867 42.4398 8.196C43.4851 7.51333 44.6904 7.012 46.0558 6.692C47.4211 6.35067 48.8504 6.18 50.3438 6.18C51.8371 6.18 53.2664 6.35067 54.6318 6.692C56.0184 7.012 57.2344 7.51333 58.2798 8.196C59.3251 8.87867 60.1571 9.74267 60.7758 10.788C61.4158 11.8333 61.7358 13.0707 61.7358 14.5ZM50.3438 22.18C50.8984 22.18 51.4318 21.9987 51.9438 21.636C52.4771 21.2733 52.9464 20.7613 53.3518 20.1C53.7571 19.4387 54.0771 18.6387 54.3118 17.7C54.5678 16.74 54.6958 15.6733 54.6958 14.5C54.6958 13.3267 54.5678 12.2707 54.3118 11.332C54.0771 10.372 53.7571 9.56133 53.3518 8.9C52.9464 8.23867 52.4878 7.72667 51.9758 7.364C51.4638 7.00133 50.9304 6.82 50.3758 6.82C49.8211 6.82 49.2771 7.00133 48.7438 7.364C48.2318 7.72667 47.7731 8.23867 47.3678 8.9C46.9624 9.56133 46.6318 10.372 46.3758 11.332C46.1411 12.2707 46.0238 13.3267 46.0238 14.5C46.0238 15.6733 46.1411 16.74 46.3758 17.7C46.6318 18.6387 46.9624 19.4387 47.3678 20.1C47.7731 20.7613 48.2318 21.2733 48.7438 21.636C49.2771 21.9987 49.8104 22.18 50.3438 22.18ZM65.255 10.948C65.255 10.18 65.1483 9.62533 64.935 9.284C64.743 8.92133 64.5083 8.772 64.231 8.836C63.975 8.9 63.719 9.16667 63.463 9.636C63.2283 10.084 63.079 10.7453 63.015 11.62H62.407C62.471 10.4893 62.663 9.58267 62.983 8.9C63.3243 8.21733 63.7297 7.70533 64.199 7.364C64.6897 7.00133 65.2123 6.76667 65.767 6.66C66.3217 6.55333 66.855 6.5 67.367 6.5C68.7537 6.5 69.8843 6.83067 70.759 7.492C71.6337 8.132 72.1457 9.24133 72.295 10.82C72.7643 10.1587 73.2977 9.55067 73.895 8.996C74.4923 8.42 75.111 7.92933 75.751 7.524C76.391 7.09733 77.0417 6.76667 77.703 6.532C78.3643 6.29733 78.9937 6.18 79.591 6.18C79.9537 6.18 80.4017 6.22267 80.935 6.308C81.4683 6.39333 81.991 6.596 82.503 6.916C83.0363 7.21467 83.527 7.684 83.975 8.324C84.423 8.94267 84.7537 9.796 84.967 10.884C85.4363 10.2013 85.9697 9.58267 86.567 9.028C87.1643 8.452 87.783 7.95067 88.423 7.524C89.063 7.09733 89.7137 6.76667 90.375 6.532C91.0577 6.29733 91.6977 6.18 92.295 6.18C92.7217 6.18 93.2443 6.244 93.863 6.372C94.503 6.47867 95.1217 6.76667 95.719 7.236C96.3163 7.70533 96.8177 8.42 97.223 9.38C97.6497 10.3187 97.863 11.6093 97.863 13.252V17.892C97.863 18.788 97.9697 19.4493 98.183 19.876C98.3963 20.3027 98.631 20.5053 98.887 20.484C99.143 20.4627 99.3883 20.2173 99.623 19.748C99.879 19.2787 100.039 18.596 100.103 17.7H100.743C100.679 18.8307 100.476 19.7373 100.135 20.42C99.815 21.1027 99.4097 21.6253 98.919 21.988C98.4497 22.3293 97.927 22.5533 97.351 22.66C96.7963 22.7667 96.263 22.82 95.751 22.82C95.0043 22.82 94.3217 22.724 93.703 22.532C93.1057 22.3613 92.5937 22.0733 92.167 21.668C91.7403 21.2627 91.4097 20.7293 91.175 20.068C90.9403 19.4067 90.823 18.596 90.823 17.636V13.252C90.823 11.972 90.631 11.012 90.247 10.372C89.863 9.732 89.383 9.36933 88.807 9.284C88.2523 9.19867 87.6443 9.36933 86.983 9.796C86.3217 10.2227 85.7137 10.8733 85.159 11.748V22.5H78.119V13.252C78.119 11.9507 77.9163 10.98 77.511 10.34C77.127 9.7 76.6363 9.348 76.039 9.284C75.463 9.19867 74.8337 9.39067 74.151 9.86C73.4683 10.308 72.8497 10.98 72.295 11.876V22.5H65.255V10.948ZM103.63 10.948C103.63 10.18 103.523 9.62533 103.31 9.284C103.118 8.92133 102.883 8.772 102.606 8.836C102.35 8.9 102.094 9.16667 101.838 9.636C101.603 10.084 101.454 10.7453 101.39 11.62H100.782C100.846 10.4893 101.038 9.58267 101.358 8.9C101.699 8.21733 102.105 7.70533 102.574 7.364C103.065 7.00133 103.587 6.76667 104.142 6.66C104.697 6.55333 105.23 6.5 105.742 6.5C107.129 6.5 108.259 6.83067 109.134 7.492C110.009 8.132 110.521 9.24133 110.67 10.82C111.139 10.1587 111.673 9.55067 112.27 8.996C112.867 8.42 113.486 7.92933 114.126 7.524C114.766 7.09733 115.417 6.76667 116.078 6.532C116.739 6.29733 117.369 6.18 117.966 6.18C118.329 6.18 118.777 6.22267 119.31 6.308C119.843 6.39333 120.366 6.596 120.878 6.916C121.411 7.21467 121.902 7.684 122.35 8.324C122.798 8.94267 123.129 9.796 123.342 10.884C123.811 10.2013 124.345 9.58267 124.942 9.028C125.539 8.452 126.158 7.95067 126.798 7.524C127.438 7.09733 128.089 6.76667 128.75 6.532C129.433 6.29733 130.073 6.18 130.67 6.18C131.097 6.18 131.619 6.244 132.238 6.372C132.878 6.47867 133.497 6.76667 134.094 7.236C134.691 7.70533 135.193 8.42 135.598 9.38C136.025 10.3187 136.238 11.6093 136.238 13.252V17.892C136.238 18.788 136.345 19.4493 136.558 19.876C136.771 20.3027 137.006 20.5053 137.262 20.484C137.518 20.4627 137.763 20.2173 137.998 19.748C138.254 19.2787 138.414 18.596 138.478 17.7H139.118C139.054 18.8307 138.851 19.7373 138.51 20.42C138.19 21.1027 137.785 21.6253 137.294 21.988C136.825 22.3293 136.302 22.5533 135.726 22.66C135.171 22.7667 134.638 22.82 134.126 22.82C133.379 22.82 132.697 22.724 132.078 22.532C131.481 22.3613 130.969 22.0733 130.542 21.668C130.115 21.2627 129.785 20.7293 129.55 20.068C129.315 19.4067 129.198 18.596 129.198 17.636V13.252C129.198 11.972 129.006 11.012 128.622 10.372C128.238 9.732 127.758 9.36933 127.182 9.284C126.627 9.19867 126.019 9.36933 125.358 9.796C124.697 10.2227 124.089 10.8733 123.534 11.748V22.5H116.494V13.252C116.494 11.9507 116.291 10.98 115.886 10.34C115.502 9.7 115.011 9.348 114.414 9.284C113.838 9.19867 113.209 9.39067 112.526 9.86C111.843 10.308 111.225 10.98 110.67 11.876V22.5H103.63V10.948ZM158.293 18.5C157.376 19.8227 156.266 20.8787 154.965 21.668C153.664 22.436 152.106 22.82 150.293 22.82C148.864 22.82 147.509 22.6493 146.229 22.308C144.949 21.9453 143.829 21.412 142.869 20.708C141.909 20.004 141.152 19.14 140.597 18.116C140.042 17.0707 139.765 15.8653 139.765 14.5C139.765 13.0707 140.053 11.8333 140.629 10.788C141.226 9.72133 142.026 8.84667 143.029 8.164C144.053 7.48133 145.226 6.98 146.549 6.66C147.872 6.31867 149.269 6.15867 150.741 6.18C151.701 6.20133 152.661 6.28667 153.621 6.436C154.581 6.58533 155.434 6.852 156.181 7.236C156.949 7.62 157.568 8.132 158.037 8.772C158.528 9.412 158.773 10.2227 158.773 11.204C158.773 12.0573 158.538 12.8147 158.069 13.476C157.621 14.1373 157.045 14.7133 156.341 15.204C155.637 15.6947 154.848 16.1107 153.973 16.452C153.12 16.7933 152.288 17.0707 151.477 17.284C150.666 17.4973 149.93 17.6573 149.269 17.764C148.608 17.8707 148.117 17.9453 147.797 17.988C148.074 18.6707 148.469 19.268 148.981 19.78C149.514 20.292 150.112 20.612 150.773 20.74C151.072 20.804 151.488 20.8467 152.021 20.868C152.576 20.868 153.184 20.7933 153.845 20.644C154.506 20.4733 155.189 20.1853 155.893 19.78C156.618 19.3747 157.301 18.7667 157.941 17.956L158.293 18.5ZM146.773 12.676C146.773 12.9747 146.773 13.3267 146.773 13.732C146.794 14.116 146.837 14.5213 146.901 14.948C146.965 15.3533 147.04 15.7693 147.125 16.196C147.232 16.6227 147.36 17.028 147.509 17.412C148.362 17.2413 149.141 17.0067 149.845 16.708C150.549 16.4093 151.157 16.036 151.669 15.588C152.202 15.1187 152.629 14.564 152.949 13.924C153.269 13.284 153.472 12.5373 153.557 11.684C153.621 11.0653 153.61 10.4787 153.525 9.924C153.44 9.348 153.28 8.836 153.045 8.388C152.81 7.94 152.501 7.57733 152.117 7.3C151.733 7.00133 151.285 6.84133 150.773 6.82C149.621 6.77733 148.672 7.27867 147.925 8.324C147.2 9.348 146.816 10.7987 146.773 12.676ZM175.95 6.18C176.504 6.18 177.016 6.26533 177.486 6.436C177.976 6.60667 178.403 6.884 178.766 7.268C179.128 7.63067 179.406 8.1 179.598 8.676C179.811 9.252 179.918 9.94533 179.918 10.756H175.246C175.075 10.116 174.755 9.68933 174.286 9.476C173.816 9.24133 173.294 9.188 172.718 9.316C172.142 9.42267 171.544 9.7 170.926 10.148C170.328 10.596 169.806 11.172 169.358 11.876V22.5H162.318C162.318 21.0493 162.318 19.9293 162.318 19.14C162.318 18.3507 162.318 17.7747 162.318 17.412C162.339 17.028 162.35 16.804 162.35 16.74C162.371 16.676 162.382 16.644 162.382 16.644C162.403 16.6227 162.414 16.58 162.414 16.516C162.414 16.452 162.403 16.2493 162.382 15.908C162.382 15.5453 162.371 14.98 162.35 14.212C162.35 13.444 162.339 12.356 162.318 10.948C162.296 10.18 162.179 9.62533 161.966 9.284C161.774 8.92133 161.55 8.772 161.294 8.836C161.038 8.9 160.782 9.16667 160.526 9.636C160.291 10.084 160.142 10.7453 160.078 11.62H159.47C159.534 10.4893 159.726 9.58267 160.046 8.9C160.387 8.21733 160.792 7.70533 161.262 7.364C161.752 7.00133 162.275 6.76667 162.83 6.66C163.384 6.55333 163.918 6.5 164.43 6.5C165.816 6.5 166.947 6.83067 167.822 7.492C168.696 8.132 169.208 9.24133 169.358 10.82C169.827 10.1587 170.318 9.55067 170.83 8.996C171.363 8.42 171.907 7.92933 172.462 7.524C173.016 7.09733 173.582 6.76667 174.158 6.532C174.755 6.29733 175.352 6.18 175.95 6.18Z" fill="url(#paint0_linear_1549_1043)"/>
<defs>
<linearGradient id="paint0_linear_1549_1043" x1="13.5" y1="6.99999" x2="201.5" y2="26.5" gradientUnits="userSpaceOnUse">
<stop stop-color="#FF7351"/>
<stop offset="0.234388" stop-color="#FD5A62"/>
<stop offset="0.49481" stop-color="#FD5267"/>
<stop offset="0.755231" stop-color="#FC4B6C"/>
<stop offset="1" stop-color="#FB3A78"/>
</linearGradient>
</defs>
</svg>
